<?xml version="1.0" encoding="UTF-8"?><svg xmlns="http://www.w3.org/2000/svg" xmlns:xlink="http://www.w3.org/1999/xlink" viewBox="0 0 300 255.02"><defs><style>.cls-1{fill:#f47d20;}.cls-2{fill:url(#linear-gradient-2);}.cls-3,.cls-4{fill:#fff;}.cls-5{fill:#ffcb2a;}.cls-4,.cls-6,.cls-7{fill-rule:evenodd;}.cls-8{fill:#222;}.cls-9{fill:url(#linear-gradient-6);}.cls-6,.cls-10{fill:url(#linear-gradient);}.cls-11{fill:#f9a01b;}.cls-12{fill:#ea4535;}.cls-13{fill:#fbad40;}.cls-14{fill:#a52a22;isolation:isolate;opacity:.2;}.cls-15{fill:#262f3e;}.cls-16{fill:#f6df19;}.cls-17{fill:#36a852;}.cls-18{fill:url(#linear-gradient-5);}.cls-7{fill:#f8991d;}.cls-19{clip-path:url(#clippath);}.cls-20{fill:#ebebeb;}.cls-21{fill:#68a063;}.cls-22{fill:none;}.cls-23{fill:#f48220;}.cls-24{fill:url(#linear-gradient-7);}.cls-25{fill:#2d2d2d;}.cls-26{fill:#4591ce;}.cls-27{fill:#223056;}.cls-28{fill:#f9bc15;}.cls-29{fill:url(#linear-gradient-3);}.cls-30{fill:rgba(255,255,255,.2);}.cls-31{fill:#70cff0;}.cls-32{fill:#f1672a;}.cls-33{fill:url(#linear-gradient-4);}.cls-34{fill:#010101;}.cls-35{fill:url(#linear-gradient-8);}.cls-36{fill:#e44f26;}.cls-37{fill:#557ebf;}.cls-10{clip-rule:evenodd;}</style><linearGradient id="linear-gradient" x1="238.2" y1="211.15" x2="232.5" y2="222.76" gradientTransform="translate(-27.73 1) rotate(.01)" gradientUnits="userSpaceOnUse"><stop offset="0" stop-color="#3f873f"/><stop offset=".33" stop-color="#3e8a3d"/><stop offset=".64" stop-color="#3e9537"/><stop offset=".93" stop-color="#3da82d"/><stop offset="1" stop-color="#3dae2b"/></linearGradient><clipPath id="clippath"><path class="cls-10" d="M208.24,209.5c-.24-.14-.53-.14-.76,0l-6.3,3.63c-.24,.14-.38,.39-.38,.66v7.28c0,.27,.14,.52,.38,.66l6.3,3.64c.24,.14,.53,.14,.76,0l6.3-3.64c.24-.14,.38-.39,.38-.66v-7.28c0-.27-.14-.52-.38-.66l-6.3-3.64Z"/></clipPath><linearGradient id="linear-gradient-2" x1="234.67" y1="217.22" x2="250.65" y2="205.42" gradientTransform="translate(-27.73 1) rotate(.01)" gradientUnits="userSpaceOnUse"><stop offset=".14" stop-color="#3f873f"/><stop offset=".4" stop-color="#519f44"/><stop offset=".71" stop-color="#63b649"/><stop offset=".91" stop-color="#6abf4b"/></linearGradient><linearGradient id="linear-gradient-3" x1="228.35" y1="207.13" x2="242.92" y2="207.13" gradientTransform="translate(-27.73 1) rotate(.01)" gradientUnits="userSpaceOnUse"><stop offset=".09" stop-color="#6abf4b"/><stop offset=".29" stop-color="#63b649"/><stop offset=".6" stop-color="#519f44"/><stop offset=".86" stop-color="#3f873f"/></linearGradient><linearGradient id="linear-gradient-4" x1="228.35" y1="216.37" x2="242.92" y2="216.37" xlink:href="#linear-gradient-3"/><linearGradient id="linear-gradient-5" x1="228.35" y1="220.53" x2="242.92" y2="220.53" xlink:href="#linear-gradient-3"/><linearGradient id="linear-gradient-6" x1="228.35" y1="222.41" x2="242.92" y2="222.41" xlink:href="#linear-gradient-3"/><linearGradient id="linear-gradient-7" x1="245.04" y1="210.8" x2="236.06" y2="229.13" xlink:href="#linear-gradient"/><linearGradient id="linear-gradient-8" x1="3.74" y1="277.88" x2="4.21" y2="277.54" gradientTransform="translate(-81.38 36602.56) rotate(.01) scale(95 -131)" gradientUnits="userSpaceOnUse"><stop offset="0" stop-color="#fff" stop-opacity=".1"/><stop offset=".14" stop-color="#fff" stop-opacity=".08"/><stop offset=".61" stop-color="#fff" stop-opacity=".02"/><stop offset="1" stop-color="#fff" stop-opacity="0"/></linearGradient></defs><g id="Layer_1"><rect class="cls-16" x="11.45" y="-.02" width="72.52" height="72.52" rx="12" ry="12"/><rect class="cls-25" x="100.85" y="0" width="72.52" height="72.52" rx="12" ry="12"/><rect class="cls-3" x="268.71" y="182.89" width="72.52" height="72.52" rx="12" ry="12"/><rect x="283.18" y="-.21" width="72.52" height="72.52" rx="12" ry="12"/><rect class="cls-3" x="23.11" y="94.23" width="72.52" height="72.52" rx="12" ry="12"/><rect x="112.5" y="94.25" width="72.52" height="72.52" rx="12" ry="12"/><rect class="cls-27" x="179.34" y="182.74" width="72.52" height="72.52" rx="12" ry="12"/><rect class="cls-15" x=".52" y="182.83" width="72.52" height="72.52" rx="12" ry="12"/><rect class="cls-8" x="292.96" y="94.23" width="72.52" height="72.52" rx="12" ry="12"/><rect class="cls-3" x="89.95" y="182.72" width="72.52" height="72.52" rx="12" ry="12"/><rect class="cls-26" x="201.8" y="94.27" width="72.52" height="72.52" rx="12" ry="12"/><rect class="cls-3" x="190.24" y=".02" width="72.52" height="72.52" rx="12" ry="12"/><path class="cls-3" d="M269.03,124.28c-1.42-.99-4.69-1.36-7.24-.86-.3-2.47-1.66-4.63-4.03-6.55l-1.37-.99-.95,1.42c-1.24,2.08-1.8,4.5-1.6,6.91,.1,1.34,.53,2.63,1.24,3.77-1.48,.77-3.13,1.15-4.8,1.11h-42.88l-.12,.48c-.42,2.47-.42,10.18,4.42,16.11,3.68,4.51,9.13,6.79,16.31,6.79,15.54,0,27.05-7.46,32.45-20.98,2.14,.06,6.7,0,9.02-4.63,.06-.12,.18-.37,.59-1.29l.24-.49-1.31-.8h.02Zm-27.34-17.41h-6.52v6.17h6.52v-6.17Zm0,7.41h-6.52v6.17h6.52v-6.17Zm-7.71,0h-6.52v6.17h6.52v-6.17h0Zm-7.71,0h-6.52v6.17h6.52v-6.17h0Zm-7.71,7.41h-6.52v6.17h6.52v-6.17h0Zm7.71,0h-6.52v6.17h6.52v-6.17h0Zm7.71,0h-6.52v6.17h6.52v-6.17h0Zm7.71,0h-6.52v6.17h6.52v-6.17h0Zm7.71,0h-6.52v6.17h6.52v-6.17h0Z"/><path class="cls-12" d="M235.86,23.45h1.88l5.36-5.36,.26-2.27c-9.97-8.8-25.19-7.86-33.99,2.11-2.45,2.77-4.22,6.06-5.19,9.63,.6-.24,1.26-.28,1.88-.11l10.72-1.76s.55-.9,.83-.85c4.77-5.23,12.79-5.84,18.29-1.39h-.04Z"/><path class="cls-37" d="M251.37,30.22c-1.13-4.16-3.44-7.89-6.67-10.75l-6.89,6.89c2.91,2.38,4.57,5.96,4.5,9.72v1.22c3.39,0,6.13,2.75,6.13,6.14,0,3.39-2.75,6.13-6.14,6.13h-12.27l-1.22,1.24v7.36l1.22,1.22h12.27c8.81,.07,16.01-7.01,16.08-15.83,.04-5.34-2.59-10.35-7.01-13.34Z"/><path class="cls-17" d="M214.05,59.31h13.38v-10.71h-13.38c-.95,0-1.9-.21-2.76-.61l-1.88,.58-5.4,5.36-.47,1.88c3.02,2.29,6.72,3.51,10.51,3.5Z"/><path class="cls-28" d="M214.06,24.55c-9.61,.06-17.36,7.89-17.31,17.51,.03,5.37,2.54,10.42,6.79,13.7l7.77-7.76c-3.37-1.52-4.86-5.49-3.34-8.85,1.52-3.37,5.49-4.86,8.85-3.34,1.48,.67,2.67,1.86,3.34,3.34l7.77-7.76c-3.3-4.32-8.43-6.84-13.87-6.83Z"/><g><path class="cls-3" d="M21.43,215.57c0,.79,.09,1.43,.23,1.9,.17,.47,.38,.98,.68,1.54,.11,.17,.15,.34,.15,.49,0,.21-.13,.43-.41,.64l-1.34,.9c-.19,.13-.38,.19-.55,.19-.21,0-.43-.11-.64-.3-.3-.32-.55-.66-.77-1-.21-.36-.43-.77-.66-1.26-1.67,1.96-3.76,2.94-6.28,2.94-1.79,0-3.22-.51-4.27-1.54-1.05-1.02-1.58-2.39-1.58-4.1,0-1.81,.64-3.29,1.94-4.4,1.3-1.11,3.03-1.66,5.23-1.66,.73,0,1.47,.06,2.26,.17s1.6,.28,2.45,.47v-1.56c0-1.62-.34-2.75-1-3.42-.68-.66-1.84-.98-3.48-.98-.75,0-1.52,.09-2.31,.28s-1.56,.43-2.31,.73c-.34,.15-.6,.23-.75,.28-.15,.04-.26,.06-.34,.06-.3,0-.45-.21-.45-.66v-1.05c0-.34,.04-.6,.15-.75s.3-.3,.6-.45c.75-.38,1.64-.7,2.69-.96,1.05-.28,2.16-.41,3.33-.4,2.54,0,4.4,.58,5.59,1.73,1.17,1.15,1.77,2.9,1.77,5.25v6.92h.04Zm-8.67,3.24c.7,0,1.43-.13,2.2-.38,.77-.26,1.45-.73,2.03-1.37,.34-.41,.6-.85,.73-1.37s.21-1.13,.21-1.86v-.9c-.62-.15-1.28-.28-1.96-.36s-1.34-.13-2.01-.13c-1.43,0-2.48,.28-3.18,.85-.7,.58-1.05,1.39-1.05,2.45,0,1,.26,1.75,.79,2.26,.51,.53,1.26,.79,2.24,.79Zm17.14,2.31c-.38,0-.64-.06-.81-.21-.17-.13-.32-.43-.45-.83l-5.01-16.5c-.13-.43-.19-.7-.19-.85,0-.34,.17-.53,.51-.53h2.09c.41,0,.68,.06,.83,.21,.17,.13,.3,.43,.43,.83l3.58,14.13,3.33-14.13c.11-.43,.23-.7,.41-.83,.17-.13,.47-.21,.85-.21h1.71c.41,0,.68,.06,.85,.21,.17,.13,.32,.43,.41,.83l3.37,14.3,3.7-14.3c.13-.43,.28-.7,.43-.83,.17-.13,.45-.21,.83-.21h1.98c.34,0,.53,.17,.53,.53,0,.11-.02,.21-.04,.34-.02,.13-.06,.3-.15,.53l-5.15,16.5c-.13,.43-.28,.7-.45,.83s-.45,.21-.81,.21h-1.84c-.41,0-.68-.06-.85-.21s-.32-.43-.41-.85l-3.31-13.77-3.29,13.74c-.11,.43-.23,.7-.41,.85-.17,.15-.47,.21-.85,.21h-1.84Zm27.43,.58c-1.11,0-2.22-.13-3.29-.38-1.07-.26-1.9-.53-2.45-.85-.34-.19-.58-.41-.66-.6-.09-.19-.13-.41-.13-.6v-1.09c0-.45,.17-.66,.49-.66,.13,0,.26,.02,.38,.06,.13,.04,.32,.13,.53,.21,.73,.32,1.52,.58,2.35,.75,.85,.17,1.69,.26,2.54,.26,1.34,0,2.39-.23,3.12-.7,.73-.47,1.11-1.15,1.11-2.03,0-.6-.19-1.09-.58-1.49-.38-.41-1.11-.77-2.16-1.11l-3.09-.96c-1.56-.49-2.71-1.22-3.41-2.18-.7-.94-1.07-1.99-1.07-3.1,0-.9,.19-1.69,.58-2.37,.38-.68,.9-1.28,1.54-1.75,.64-.49,1.37-.85,2.22-1.11,.85-.26,1.75-.36,2.69-.36,.47,0,.96,.02,1.43,.09,.49,.06,.94,.15,1.39,.24,.43,.11,.83,.21,1.22,.34,.38,.13,.68,.26,.9,.38,.3,.17,.51,.34,.64,.53,.13,.17,.19,.41,.19,.7v1c0,.45-.17,.68-.49,.68-.17,0-.45-.09-.81-.26-1.22-.56-2.58-.83-4.1-.83-1.22,0-2.18,.19-2.84,.6s-1,1.02-1,1.9c0,.6,.21,1.11,.64,1.52,.43,.41,1.22,.81,2.35,1.17l3.03,.96c1.54,.49,2.65,1.17,3.31,2.05,.66,.88,.98,1.88,.98,2.99,0,.92-.19,1.75-.56,2.48-.38,.73-.9,1.37-1.56,1.88-.66,.53-1.45,.92-2.37,1.19-.96,.3-1.96,.45-3.05,.45Z"/><g><path class="cls-7" d="M61.36,232.08c-7.02,5.18-17.23,7.94-26,7.93-12.29,0-23.37-4.55-31.74-12.11-.66-.6-.06-1.41,.73-.94,9.05,5.25,20.21,8.44,31.76,8.44,7.79,0,16.35-1.62,24.23-4.95,1.17-.53,2.18,.77,1.02,1.62Z"/><path class="cls-7" d="M64.29,228.75c-.9-1.15-5.93-.56-8.22-.28-.68,.09-.79-.51-.17-.96,4.01-2.82,10.61-2,11.38-1.06,.77,.96-.22,7.56-3.97,10.71-.58,.49-1.13,.23-.87-.41,.85-2.11,2.75-6.87,1.86-8Z"/></g></g><path class="cls-4" d="M319.43,6.95c-16.11,0-29.18,13.06-29.18,29.17,0,12.89,8.35,23.83,19.95,27.69,1.46,.27,1.99-.63,1.99-1.41,0-.69-.02-2.53-.04-4.96-8.12,1.76-9.83-3.91-9.83-3.91-1.33-3.37-3.24-4.27-3.24-4.27-2.65-1.81,.2-1.77,.2-1.77,2.93,.21,4.47,3.01,4.47,3.01,2.6,4.46,6.83,3.17,8.49,2.43,.27-1.89,1.02-3.17,1.85-3.9-6.48-.74-13.29-3.24-13.29-14.42,0-3.19,1.14-5.79,3.01-7.83-.3-.74-1.3-3.7,.29-7.72,0,0,2.45-.78,8.02,2.99,2.33-.65,4.82-.97,7.3-.98,2.48,.01,4.97,.34,7.3,.98,5.57-3.77,8.02-2.99,8.02-2.99,1.59,4.02,.59,6.98,.29,7.72,1.87,2.04,3,4.64,3,7.83,0,11.21-6.83,13.67-13.33,14.39,1.05,.9,1.98,2.68,1.98,5.4,0,3.9-.04,7.05-.04,8,0,.78,.53,1.69,2.01,1.4,11.58-3.86,19.94-14.79,19.94-27.68,0-16.12-13.06-29.18-29.17-29.19Z"/><g transform="translate(0.000000, -1.000000)"><path class="cls-3" d="M78.06,125.1l-1.3-.52c-6.12,13.75-30.43,5.38-31.89,9.48-.24,2.76,13.28,.53,22.94,1,2.95,.14,4.43,2.37,3.17,6h2.47c2.85-8.86,11.92-4.33,12.3-7.26-.62-1.92-10.43,0-7.69-8.69Z"/><path class="cls-23" d="M71.68,139.54c.39-1.3,.26-2.6-.39-3.38-.65-.78-1.56-1.3-2.73-1.43l-22.63-.27c-.13,0-.26-.13-.39-.13-.13-.13-.13-.26,0-.39,.13-.26,.26-.39,.52-.39l22.76-.25c2.73-.13,5.59-2.34,6.63-4.94l1.3-3.38c0-.13,.13-.26,0-.39-1.43-6.63-7.41-11.58-14.43-11.58-6.5,0-12.1,4.16-14.05,10.01-1.3-.91-2.86-1.43-4.68-1.3-3.12,.26-5.59,2.86-5.98,5.98-.13,.78,0,1.56,.13,2.34-5.07,.13-9.23,4.29-9.24,9.49,0,.52,0,.91,.13,1.43,0,.26,.26,.39,.39,.39h41.74c.26,0,.52-.12,.52-.38l.39-1.43Z"/><path class="cls-13" d="M78.84,124.97h-.65c-.13,0-.26,.13-.39,.26l-.91,3.12c-.39,1.3-.26,2.6,.39,3.38,.65,.78,1.56,1.3,2.73,1.43l4.81,.26c.13,0,.26,.13,.39,.13,.13,.13,.13,.26,0,.39-.13,.26-.26,.39-.52,.39l-4.94,.26c-2.73,.13-5.59,2.34-6.63,4.94l-.26,1.17c-.13,.13,0,.39,.26,.39h17.17c.26,0,.39-.13,.39-.39,.26-1.04,.52-2.21,.52-3.38,0-6.76-5.59-12.36-12.35-12.36"/></g><path class="cls-34" d="M60.59,57.34c1.31,2.14,3.01,3.71,6.03,3.71,2.53,0,4.15-1.26,4.15-3.01,0-2.09-1.66-2.84-4.45-4.06l-1.53-.66c-4.41-1.88-7.34-4.23-7.33-9.21,0-4.58,3.49-8.07,8.95-8.07,3.88,0,6.68,1.35,8.69,4.89l-4.76,3.05c-1.05-1.88-2.18-2.62-3.93-2.62s-2.92,1.13-2.92,2.62c0,1.83,1.13,2.57,3.76,3.71l1.53,.65c5.19,2.23,8.12,4.5,8.12,9.6,0,5.5-4.32,8.51-10.13,8.51-5.67,0-9.34-2.71-11.13-6.25l4.97-2.88Zm-21.58,.52c.96,1.7,1.83,3.14,3.93,3.14s3.27-.78,3.27-3.84v-20.77h6.11v20.86c0,6.33-3.72,9.2-9.13,9.2-4.89,0-7.72-2.53-9.16-5.58l4.97-3.01Z"/></g><g id="Next"><g id="Page-1"><g id="Black-Next.js" transform="translate(-247.000000, -138.000000)"><g id="next-black" transform="translate(247.000000, 138.000000)"><g id="EXT-_-Type-something"><path id="EXT" class="cls-3" d="M131.96,121.54h12.64v1h-11.48v7.52h10.8v1h-10.8v8.26h11.61v1h-12.77v-18.79Zm13.78,0h1.34l5.95,8.26,6.09-8.26,8.28-10.49-13.6,19.62,7,9.66h-1.4l-6.37-8.79-6.4,8.79h-1.37l7.06-9.66-6.58-9.13Zm15.56,1v-1h14.41v1h-6.64v17.79h-1.16v-17.79h-6.61Z"/><polygon id="Type-something" class="cls-3" points="116.15 121.53 117.59 121.53 137.56 151.28 129.31 140.32 117.36 122.95 117.3 140.32 116.14 140.32 116.15 121.53"/></g><path id="_JS" class="cls-3" d="M175.58,139.03c.24,0,.41-.18,.41-.42s-.17-.42-.41-.42-.41,.18-.41,.42,.18,.42,.41,.42Zm1.14-1.1c0,.7,.5,1.15,1.24,1.15,.78,0,1.26-.47,1.26-1.28v-2.87h-.63v2.86c0,.45-.23,.69-.63,.69-.36,0-.61-.22-.61-.56h-.62Zm3.32-.04c.04,.72,.65,1.19,1.55,1.19,.96,0,1.57-.49,1.57-1.26,0-.61-.34-.95-1.18-1.14l-.45-.11c-.53-.12-.74-.29-.74-.58,0-.37,.33-.6,.83-.6s.8,.23,.86,.61h.61c-.04-.68-.64-1.16-1.47-1.16-.89,0-1.48,.48-1.48,1.2,0,.6,.34,.95,1.07,1.12l.52,.13c.54,.13,.77,.31,.77,.62,0,.36-.37,.62-.88,.62-.54,0-.92-.24-.97-.63h-.63Z"/></g></g></g><path class="cls-34" d="M108.25,188.46h2.8v2.77h2.58v-2.77h2.8v8.39h-2.8v-2.8h-2.55v2.8h-2.82m11.87-5.59h-2.47v-2.8h7.74v2.8h-2.48v5.59h-2.8m6.51-8.39h2.93l1.8,2.96,1.8-2.95h2.93v8.39h-2.8v-4.16l-1.96,3.01-1.96-3.02v4.16h-2.75m10.85-8.39h2.8v5.62h3.96v2.77h-6.76"/><path class="cls-36" d="M108.14,245.72l-4-45.03h44.1l-4.02,45.01-18.08,5"/><path class="cls-32" d="M126.18,246.88v-42.49h18.04l-3.45,38.42"/><path class="cls-20" d="M112.33,209.9h13.86v5.52h-7.81l.51,5.65h7.29v5.51h-12.35m.24,2.77h5.54l.39,4.41,6.18,1.65v5.76l-11.33-3.16"/><path class="cls-3" d="M139.99,209.9h-13.83v5.52h13.32m-.5,5.66h-12.83v5.52h6.81l-.65,7.17-6.16,1.65v5.74l11.31-3.13"/></g><g id="Nodejs"><path class="cls-21" d="M216.18,240.7c-.22,0-.44-.06-.63-.17l-2-1.18c-.3-.17-.15-.23-.05-.26,.4-.14,.48-.17,.9-.41,.04-.03,.1-.02,.15,.01l1.53,.91c.06,.03,.13,.03,.19,0l5.98-3.45c.06-.03,.09-.1,.09-.16v-6.9c0-.07-.03-.13-.09-.16l-5.98-3.45c-.06-.03-.13-.03-.18,0l-5.98,3.45c-.06,.03-.09,.1-.09,.16v6.9c0,.07,.03,.13,.09,.16l1.64,.95c.89,.44,1.43-.08,1.43-.61v-6.81c0-.1,.08-.17,.18-.17h.76c.09,0,.17,.08,.17,.17v6.82c0,1.19-.65,1.87-1.77,1.87-.35,0-.62,0-1.38-.37l-1.57-.9c-.39-.22-.63-.64-.63-1.09v-6.9c0-.45,.24-.87,.63-1.09l5.99-3.45c.38-.21,.88-.21,1.26,0l5.98,3.46c.39,.22,.63,.64,.63,1.09v6.9c0,.45-.24,.87-.63,1.09l-5.98,3.45c-.19,.11-.41,.17-.63,.17"/><path class="cls-21" d="M218.02,235.94c-2.62,0-3.17-1.2-3.17-2.21,0-.1,.08-.17,.17-.17h.77c.09,0,.16,.06,.17,.15,.12,.79,.46,1.18,2.05,1.19,1.26,0,1.8-.28,1.8-.95,0-.38-.15-.67-2.11-.86-1.64-.16-2.65-.52-2.65-1.83,0-1.21,1.02-1.93,2.72-1.93,1.92,0,2.86,.67,2.98,2.09,0,.05-.01,.1-.05,.13-.03,.03-.08,.06-.13,.06h-.78c-.08,0-.15-.06-.17-.14-.19-.83-.64-1.09-1.87-1.09-1.38,0-1.54,.48-1.54,.84,0,.44,.19,.56,2.05,.81,1.84,.24,2.71,.59,2.71,1.88s-1.09,2.05-2.98,2.05m7.29-7.32h.2c.16,0,.2-.12,.2-.18,0-.18-.12-.18-.19-.18h-.21v.36Zm-.25-.57h.44c.15,0,.45,0,.45,.34,0,.24-.15,.29-.24,.32,.18,.01,.19,.13,.21,.29,.01,.1,.03,.28,.07,.34h-.27c0-.06-.05-.39-.05-.41-.02-.07-.04-.11-.13-.11h-.23v.52h-.25v-1.3Zm-.53,.64c0,.54,.43,.97,.96,.97s.97-.44,.97-.97-.44-.96-.97-.96-.96,.42-.96,.96m2.12,0c0,.63-.52,1.15-1.15,1.15s-1.15-.51-1.15-1.15,.54-1.15,1.15-1.15,1.15,.5,1.15,1.15"/><path class="cls-4" d="M197.65,213.68c0-.28-.15-.53-.38-.67l-6.34-3.65c-.11-.06-.23-.1-.35-.1h-.07c-.12,0-.24,.04-.35,.1l-6.34,3.65c-.24,.14-.38,.39-.38,.67v9.83c.01,.14,.08,.26,.2,.33,.12,.07,.26,.07,.38,0l3.77-2.16c.24-.14,.38-.39,.38-.66v-4.59c0-.27,.15-.53,.38-.66l1.61-.92c.12-.07,.25-.1,.38-.1s.27,.03,.38,.1l1.6,.92c.24,.14,.38,.39,.38,.66v4.59c0,.27,.15,.52,.38,.67l3.77,2.16c.12,.07,.27,.07,.38,0,.12-.07,.19-.19,.19-.33v-9.83Zm29.95,5.13c0,.07-.04,.13-.1,.17l-2.18,1.26c-.06,.03-.13,.03-.19,0l-2.18-1.26c-.06-.03-.1-.1-.1-.17v-2.52c0-.07,.04-.13,.09-.17l2.18-1.26c.06-.03,.13-.03,.19,0l2.18,1.26c.06,.03,.1,.1,.1,.17v2.52Zm.59-18.63c-.12-.07-.26-.06-.38,0-.12,.07-.19,.19-.19,.33v9.73c0,.1-.05,.18-.14,.23-.08,.05-.18,.05-.27,0l-1.59-.92c-.24-.14-.53-.14-.77,0l-6.35,3.66c-.24,.14-.38,.39-.38,.66v7.33c0,.27,.14,.53,.38,.66l6.34,3.67c.24,.14,.53,.14,.77,0l6.35-3.66c.24-.14,.38-.39,.38-.66v-18.26c0-.28-.15-.53-.39-.67l-3.77-2.11Zm21.13,16.05c.24-.14,.38-.39,.38-.66v-1.78c0-.27-.14-.53-.38-.66l-6.3-3.66c-.24-.14-.53-.14-.77,0l-6.34,3.66c-.24,.14-.38,.39-.38,.66v7.32c0,.28,.15,.53,.38,.67l6.3,3.59c.23,.13,.52,.13,.75,0l3.81-2.12c.12-.07,.2-.19,.2-.33s-.07-.27-.19-.33l-6.38-3.66c-.12-.07-.19-.19-.19-.33v-2.3c0-.14,.07-.26,.19-.33l1.99-1.15c.12-.07,.26-.07,.38,0l1.99,1.15c.12,.07,.19,.19,.19,.33v1.81c0,.14,.07,.26,.19,.33,.12,.07,.27,.07,.38,0l3.81-2.21Z"/></g><g id="de_O_van_node"><g><path class="cls-6" d="M208.24,209.5c-.24-.14-.53-.14-.76,0l-6.3,3.63c-.24,.14-.38,.39-.38,.66v7.28c0,.27,.14,.52,.38,.66l6.3,3.64c.24,.14,.53,.14,.76,0l6.3-3.64c.24-.14,.38-.39,.38-.66v-7.28c0-.27-.14-.52-.38-.66l-6.3-3.64Z"/><g class="cls-19"><g><path class="cls-22" d="M207.47,209.5l-6.32,3.63c-.24,.14-.41,.39-.41,.66v7.28c0,.18,.08,.35,.19,.48l7.1-12.14c-.19-.05-.4-.02-.57,.08Z"/><path class="cls-22" d="M208.07,225.44c.06-.02,.12-.04,.18-.07l6.31-3.64c.24-.14,.4-.39,.4-.66v-7.28c0-.2-.09-.39-.23-.53l-6.65,12.18Z"/><path class="cls-2" d="M214.55,213.14l-6.32-3.64c-.06-.04-.13-.06-.2-.08l-7.1,12.14c.06,.07,.13,.13,.21,.17l6.33,3.64c.18,.1,.39,.13,.59,.07l6.65-12.18c-.05-.05-.11-.09-.17-.13Z"/></g><g><path class="cls-22" d="M214.95,221.07v-7.28c0-.27-.16-.52-.4-.66l-6.32-3.64c-.07-.04-.15-.07-.23-.09l6.92,11.84c.01-.06,.02-.12,.02-.17Z"/><path class="cls-22" d="M201.15,213.13c-.24,.14-.41,.39-.41,.66v7.28c0,.27,.17,.52,.41,.66l6.33,3.64c.15,.09,.32,.12,.49,.09l-6.78-12.35-.04,.02Z"/><polygon class="cls-29" points="207.27 208.16 207.18 208.21 207.3 208.21 207.27 208.16"/><path class="cls-33" d="M214.55,221.73c.18-.11,.32-.28,.37-.48l-6.92-11.84c-.18-.04-.37,0-.54,.09l-6.28,3.61,6.78,12.35c.1-.01,.19-.04,.28-.09l6.31-3.64Z"/><polygon class="cls-18" points="215.14 221.62 215.1 221.54 215.1 221.64 215.14 221.62"/><path class="cls-9" d="M214.55,221.73l-6.31,3.64c-.09,.05-.18,.08-.28,.09l.13,.23,7.01-4.05v-.1l-.17-.3c-.05,.2-.19,.38-.37,.48Z"/><path class="cls-24" d="M214.55,221.73l-6.31,3.64c-.09,.05-.18,.08-.28,.09l.13,.23,7.01-4.05v-.1l-.17-.3c-.05,.2-.19,.38-.37,.48Z"/></g></g></g></g><g id="Layer_4"><g id="Layer_2"><path class="cls-31" d="M158.2,26.05h0c-.71-.24-1.39-.47-2.1-.68,.1-.47,.24-.95,.34-1.45,1.59-7.74,.54-13.97-3.01-16.03-3.41-1.96-8.99,.07-14.64,5-.54,.47-1.12,.98-1.62,1.49-.37-.34-.71-.68-1.08-1.01-5.92-5.24-11.83-7.48-15.38-5.41-3.42,1.96-4.43,7.84-2.98,15.18,.14,.71,.3,1.45,.47,2.16-.85,.24-1.66,.51-2.43,.78-6.93,2.4-11.36,6.19-11.36,10.14s4.77,8.12,11.97,10.59c.57,.2,1.18,.37,1.76,.54-.2,.78-.37,1.56-.51,2.33-1.35,7.2-.31,12.95,3.11,14.91,3.52,2.03,9.4-.07,15.15-5.07,.44-.41,.91-.81,1.35-1.25,.57,.54,1.15,1.08,1.76,1.62,5.58,4.8,11.06,6.73,14.47,4.77,3.52-2.03,4.67-8.18,3.18-15.66-.1-.57-.24-1.15-.41-1.76,.41-.14,.81-.24,1.22-.37,7.51-2.5,12.38-6.49,12.38-10.61,0-3.96-4.56-7.78-11.63-10.21Zm-17.61-11.03c4.84-4.19,9.33-5.85,11.4-4.66h0c2.2,1.25,3.04,6.36,1.65,13.05-.1,.44-.2,.88-.3,1.28-2.87-.64-5.82-1.12-8.76-1.39-1.69-2.44-3.55-4.73-5.54-6.9,.54-.47,1.05-.95,1.56-1.39Zm-16.88,24.58c.61,1.15,1.22,2.27,1.86,3.38,.64,1.15,1.35,2.27,2.06,3.35-2.03-.24-4.02-.54-6.02-.98,.54-1.86,1.25-3.79,2.1-5.75Zm0-6.59c-.81-1.93-1.52-3.82-2.1-5.68,1.86-.41,3.86-.74,5.95-1.01-.71,1.08-1.35,2.2-2,3.31-.68,1.12-1.29,2.23-1.86,3.38Zm1.49,3.28c.85-1.79,1.79-3.55,2.77-5.27h0c.98-1.72,2.06-3.41,3.18-5.04,1.96-.13,3.96-.24,5.95-.24s4.02,.07,5.99,.24c1.12,1.66,2.16,3.31,3.14,5.04,.98,1.72,1.93,3.48,2.81,5.24-.88,1.79-1.83,3.55-2.81,5.31h0c-.98,1.72-2.03,3.41-3.15,5.07-1.93,.13-3.96,.2-5.99,.2s-4.02-.07-5.92-.2c-1.12-1.66-2.2-3.35-3.21-5.07-.98-1.72-1.93-3.48-2.77-5.28Zm23.47,6.67c.64-1.15,1.29-2.3,1.89-3.48h0c.84,1.89,1.55,3.79,2.2,5.75-2.03,.44-4.06,.81-6.12,1.05,.71-1.08,1.39-2.2,2.03-3.31h0Zm1.86-9.94c-.61-1.15-1.22-2.3-1.89-3.42h0c-.64-1.12-1.32-2.2-1.99-3.28,2.1,.27,4.09,.61,5.98,1.05-.61,1.93-1.29,3.82-2.1,5.65Zm-13.39-14.61c1.35,1.49,2.64,3.04,3.85,4.67-2.57-.14-5.14-.14-7.74,0,1.29-1.69,2.57-3.25,3.89-4.67Zm-15.08-7.98c2.2-1.25,7.03,.54,12.14,5.08,.34,.3,.64,.61,.98,.91-2,2.16-3.89,4.46-5.58,6.9-2.94,.27-5.85,.71-8.72,1.35-.17-.68-.3-1.35-.44-2.03h0c-1.25-6.29-.44-11.02,1.63-12.21Zm-3.19,34.25l-1.62-.51c-2.77-.88-5.38-2.23-7.64-4.06-1.32-.91-2.2-2.3-2.43-3.89,0-2.37,3.55-5.41,9.47-7.5,.74-.27,1.49-.51,2.27-.71,.88,2.81,1.96,5.58,3.18,8.25-1.25,2.77-2.33,5.58-3.21,8.42Zm15.15,12.75c-2.13,1.96-4.63,3.52-7.34,4.6h0c-1.45,.68-3.11,.74-4.6,.17-2.06-1.18-2.91-5.78-1.76-11.97,.14-.74,.3-1.45,.47-2.16,2.91,.61,5.85,1.05,8.83,1.29,1.72,2.44,3.58,4.77,5.61,6.93-.37,.41-.81,.78-1.22,1.15Zm3.18-3.14c-1.32-1.42-2.64-3.01-3.92-4.7,1.25,.03,2.54,.07,3.82,.07s2.64-.03,3.96-.1c-1.22,1.66-2.5,3.21-3.86,4.73h0Zm16.97,3.89c-.14,1.59-.91,3.08-2.13,4.06-2.06,1.18-6.46-.37-11.23-4.47-.54-.47-1.08-.98-1.66-1.49,2-2.2,3.82-4.53,5.48-6.96,2.98-.24,5.95-.71,8.86-1.35,.14,.54,.24,1.08,.34,1.59h0c.68,2.81,.78,5.75,.34,8.62h0Zm2.4-13.96h0c-.37,.14-.71,.24-1.12,.34-.91-2.84-2.03-5.61-3.31-8.29,1.25-2.64,2.3-5.38,3.18-8.18,.68,.2,1.32,.41,1.96,.61,6.05,2.1,9.74,5.18,9.74,7.54,0,2.54-3.99,5.82-10.45,7.98h0Z"/><path class="cls-31" d="M137.1,30.44c3.21,0,5.85,2.61,5.85,5.85,0,3.25-2.61,5.85-5.85,5.85-3.25,0-5.85-2.61-5.85-5.85h0c0-3.21,2.64-5.85,5.85-5.85h0"/></g></g><g id="Layer_5"><path class="cls-11" d="M284,237.39l7.19-45.95c.09-.56,.53-1.01,1.09-1.1s1.12,.18,1.39,.68l7.42,13.85,2.96-5.64c.23-.44,.68-.71,1.17-.71s.94,.27,1.17,.71l20.03,38.17h-42.44Z"/><path class="cls-1" d="M308.81,219.5l-7.72-14.63-17.09,32.53,24.82-17.9Z"/><path class="cls-5" d="M326.44,237.4l-5.49-34.04c-.08-.49-.43-.89-.9-1.04s-.99-.03-1.34,.32l-34.7,34.75,19.2,10.77c1.21,.67,2.67,.67,3.88,0l19.37-10.76h0Z"/><path class="cls-30" d="M320.95,203.36c-.08-.49-.43-.89-.9-1.04s-.99-.03-1.34,.32l-6.89,6.9-5.41-10.31c-.23-.44-.68-.71-1.17-.71s-.94,.27-1.17,.71l-2.96,5.64-7.42-13.85c-.27-.5-.83-.78-1.39-.68s-1,.54-1.09,1.11l-7.19,45.95h-.02l.02,.03,.19,.09,34.5-34.53c.35-.35,.87-.48,1.34-.33s.82,.55,.91,1.04l5.45,33.74,.05-.03-5.49-34.04h0Zm-36.89,33.97l7.13-45.56c.09-.56,.52-1.01,1.09-1.11s1.12,.18,1.39,.68l7.42,13.85,2.96-5.64c.23-.44,.68-.71,1.17-.71s.94,.27,1.17,.71l5.3,10.09-27.65,27.68h0Z"/><path class="cls-14" d="M316.07,247.84c-1.21,.67-2.67,.67-3.88,0l-19.15-10.74-.05,.3,19.2,10.77c1.21,.67,2.67,.67,3.88,0l19.37-10.76-.05-.31-19.32,10.74h0Z"/><path id="b" class="cls-35" d="M320.89,203.37c-.08-.49-.43-.89-.9-1.04s-.99-.03-1.34,.32l-6.86,6.9-5.39-10.31c-.23-.44-.68-.71-1.17-.71s-.94,.27-1.17,.71l-2.95,5.63-7.4-13.85c-.27-.5-.83-.78-1.39-.68s-1,.54-1.08,1.11l-7.16,45.93,19.13,10.76c1.2,.67,2.66,.67,3.87,0l19.3-10.75-5.47-34.03h0Z"/></g></svg>